<?xml version="1.0" standalone="no"?>
<!DOCTYPE svg PUBLIC "-//W3C//DTD SVG 20010904//EN"
 "http://www.w3.org/TR/2001/REC-SVG-20010904/DTD/svg10.dtd">
<svg version="1.0" xmlns="http://www.w3.org/2000/svg"
 width="1536.000000pt" height="1024.000000pt" viewBox="0 0 1536.000000 1024.000000"
 preserveAspectRatio="xMidYMid meet">

<g transform="translate(0.000000,1024.000000) scale(0.100000,-0.100000)"
fill="#000000" stroke="none">
<path d="M5957 7108 c3 -16 2 -19 -4 -10 -7 9 -14 1 -26 -29 -9 -23 -14 -46
-10 -52 3 -6 2 -7 -4 -4 -6 4 -21 -6 -34 -21 -13 -14 -16 -20 -6 -13 11 9 17
10 17 2 0 -6 -3 -11 -7 -12 -36 -3 -156 -58 -130 -58 9 -1 17 -5 17 -11 0 -13
-12 -13 -46 0 -15 6 -29 8 -31 6 -3 -3 17 -11 45 -19 71 -21 105 -41 140 -81
16 -19 32 -33 34 -30 3 2 5 -2 5 -8 1 -7 10 -35 20 -61 l20 -49 21 59 c12 32
20 61 19 64 -1 4 18 23 43 43 61 49 64 51 75 52 28 1 86 17 91 26 3 5 -6 6
-23 3 -21 -5 -24 -4 -13 4 13 9 13 11 -1 11 -9 0 -37 11 -63 25 -25 13 -46 22
-46 18 0 -3 -16 15 -35 41 -20 25 -40 46 -45 46 -6 0 -10 5 -10 11 0 5 4 8 8
5 5 -3 4 10 -2 29 -12 39 -27 48 -19 13z"/>
<path d="M6322 6622 c-25 -67 -55 -97 -132 -130 l-45 -19 51 -17 c61 -20 105
-64 129 -129 l18 -47 17 51 c22 65 51 94 125 124 48 19 56 25 40 31 -102 35
-145 75 -168 155 l-13 43 -22 -62z"/>
<path d="M4274 6610 c-11 -4 -29 -21 -40 -37 -17 -25 -19 -53 -24 -295 l-5
-266 -30 -44 c-20 -28 -49 -53 -84 -70 l-55 -28 -235 2 c-192 2 -214 3 -121 8
63 3 108 7 99 8 -18 2 -32 28 -23 43 3 5 -1 12 -8 14 -8 3 -13 18 -12 35 1 17
-3 30 -8 30 -6 0 -8 11 -6 24 4 18 1 23 -10 18 -12 -4 -14 1 -10 22 4 20 1 29
-11 33 -9 2 -24 9 -34 14 -10 5 -23 6 -30 2 -7 -4 -7 0 2 10 14 18 37 24 26 8
-3 -5 -1 -12 4 -15 5 -4 8 2 6 11 -1 10 9 31 24 47 31 35 -130 -99 -210 -176
-31 -29 -67 -73 -80 -98 l-24 -45 -3 -934 c-3 -1028 -4 -1004 58 -1068 17 -17
47 -39 68 -49 35 -18 85 -19 1001 -22 1111 -3 1034 -8 1131 86 98 96 91 -8 88
1338 l-3 1169 -27 51 c-40 75 -116 139 -195 164 -62 19 -91 20 -632 19 -311 0
-575 -4 -587 -9z m1394 -165 c-3 -3 -9 2 -12 12 -6 14 -5 15 5 6 7 -7 10 -15
7 -18z m32 -84 c5 -30 9 -181 9 -340 -1 -192 -4 -263 -9 -216 -5 39 -6 81 -3
95 3 19 2 22 -6 10 -7 -11 -10 -8 -9 15 0 17 -1 35 -2 40 -4 18 0 36 8 32 4
-3 8 10 9 29 2 26 0 32 -12 28 -8 -4 -15 -11 -15 -17 0 -5 -8 -3 -18 6 -19 17
-50 8 -38 -12 4 -6 12 -9 17 -6 5 4 9 1 9 -4 0 -6 -5 -11 -11 -11 -5 0 -7 -4
-4 -10 3 -5 0 -7 -8 -4 -18 7 -19 50 -1 65 8 6 14 21 14 33 0 17 2 18 10 6 7
-11 10 -11 10 -2 0 8 5 10 13 6 6 -4 2 4 -10 18 -28 30 -30 58 -5 58 10 0 19
-7 19 -15 0 -18 -13 -20 -21 -2 -3 6 -5 3 -3 -7 3 -28 33 -44 49 -27 9 10 9
12 1 7 -9 -5 -11 3 -9 29 2 20 6 38 10 42 12 12 6 34 -6 27 -9 -6 -9 -3 1 9
14 18 8 117 -11 167 -6 17 -6 22 1 15 6 -6 15 -35 21 -64z m-202 15 c40 -21
72 -67 72 -103 0 -41 -34 -195 -60 -273 -12 -36 -46 -117 -75 -180 -29 -63
-71 -154 -94 -202 -22 -49 -43 -88 -46 -88 -3 0 -1 9 5 19 17 33 12 49 -17 53
-20 2 -28 9 -28 23 -1 12 -7 19 -15 17 -8 -2 -11 0 -7 4 18 18 35 12 31 -12
-2 -13 0 -24 6 -24 6 0 10 15 8 34 -1 19 -6 32 -10 30 -4 -3 -8 1 -9 8 0 7 -2
24 -5 38 -3 18 -2 21 5 10 5 -8 7 -18 5 -22 -3 -4 2 -5 11 -2 11 5 13 10 5 19
-5 6 -7 15 -3 18 3 4 1 7 -6 7 -7 0 -10 4 -7 9 4 5 0 12 -6 14 -14 6 15 10 44
8 15 -2 16 2 9 21 -4 13 -6 29 -3 37 3 8 -1 12 -9 9 -8 -3 -16 -13 -17 -23 -3
-10 0 -15 7 -11 6 4 11 1 11 -7 0 -14 -34 -17 -47 -4 -11 11 -13 38 -2 31 5
-3 7 -9 4 -14 -3 -5 -1 -11 5 -15 12 -8 13 15 1 35 -6 8 -7 18 -4 23 3 5 9 3
14 -4 7 -11 9 -9 9 6 0 15 3 17 9 7 7 -11 9 -11 14 1 5 12 -1 15 -26 12 l-32
-4 25 14 c14 7 27 12 31 10 3 -2 5 6 4 18 -2 12 -8 21 -14 20 -6 -2 -11 4 -11
13 0 10 -5 14 -16 10 -8 -3 -12 -2 -9 4 9 14 42 12 48 -2 3 -8 6 -7 6 4 1 9
-3 19 -9 23 -5 3 -6 13 -3 23 4 10 -2 7 -15 -8 -12 -14 -21 -19 -22 -12 0 6 5
12 10 12 6 0 10 6 10 14 0 7 10 16 22 19 18 5 19 8 8 21 -10 13 -10 16 3 16 9
0 18 -4 22 -10 3 -5 12 -7 20 -3 8 3 15 0 15 -6 0 -6 -5 -11 -12 -11 -7 0 -5
-5 5 -12 9 -7 18 -29 20 -48 3 -19 3 -7 2 26 -3 83 -39 160 -96 206 -56 45
-74 54 -129 63 -25 5 -39 10 -32 12 9 4 10 9 2 18 -8 9 -4 12 15 10 19 -3 25
1 25 15 0 25 17 34 27 16 7 -12 12 -11 32 5 15 12 18 19 10 20 -8 1 2 5 21 10
54 12 204 3 238 -15z m163 -173 c13 -16 12 -17 -3 -4 -10 7 -18 15 -18 17 0 8
8 3 21 -13z m-301 -109 c0 -16 -16 -19 -25 -4 -8 13 4 32 16 25 5 -4 9 -13 9
-21z m-1680 -4 c0 -5 -2 -10 -4 -10 -3 0 -8 5 -11 10 -3 6 -1 10 4 10 6 0 11
-4 11 -10z m1935 0 c3 -5 1 -10 -4 -10 -6 0 -11 5 -11 10 0 6 2 10 4 10 3 0 8
-4 11 -10z m66 -77 c-6 -10 -11 -13 -11 -8 0 6 -5 3 -10 -5 -8 -13 -10 -12
-10 3 0 9 7 17 15 17 8 0 15 5 15 12 0 6 3 9 6 5 3 -3 1 -14 -5 -24z m-387
-85 c-3 -4 -12 -8 -20 -8 -8 0 -14 4 -14 8 0 4 9 8 19 8 11 0 17 -4 15 -8z
m-470 -209 c14 -7 27 -17 29 -23 5 -12 -154 -522 -264 -851 l-64 -190 -38 -9
c-29 -7 -45 -6 -72 7 -19 9 -35 21 -35 25 0 5 51 168 114 363 63 195 135 420
160 500 25 80 54 153 64 161 33 29 67 34 106 17z m883 -101 c-3 -7 -5 -2 -5
12 0 14 2 19 5 13 2 -7 2 -19 0 -25z m-1407 -98 c15 -15 20 -33 20 -75 0 -55
0 -55 -47 -85 -27 -16 -99 -57 -160 -92 -62 -34 -113 -64 -113 -67 0 -3 68
-44 152 -91 83 -47 158 -91 165 -99 16 -15 12 -62 -9 -113 -15 -39 -46 -36
-127 8 -196 109 -393 228 -401 244 -16 29 -12 86 8 108 18 23 459 280 480 281
6 1 21 -8 32 -19z m695 4 c13 -9 30 -12 36 -8 8 4 9 3 5 -4 -8 -13 50 -46 65
-37 5 4 8 2 7 -4 -2 -5 65 -48 147 -95 83 -48 160 -98 173 -112 33 -38 30 -98
-7 -132 -42 -40 -427 -252 -456 -252 -19 0 -28 8 -36 28 -14 35 -13 100 1 117
7 8 54 38 105 67 52 29 91 56 88 62 -3 5 -1 6 5 2 12 -7 86 26 97 43 3 6 -3
15 -14 20 -25 14 -34 14 -25 0 4 -8 0 -8 -15 0 -24 13 -28 23 -6 15 27 -11 16
5 -15 21 -34 18 -44 19 -34 4 8 -14 -22 2 -51 26 -19 16 -18 16 8 0 16 -9 31
-15 33 -12 10 9 -154 97 -169 91 -10 -3 -22 4 -33 21 -14 21 -15 31 -6 58 l11
32 -5 -32 c-6 -34 9 -73 28 -73 6 0 3 9 -7 20 -15 17 -16 25 -6 65 6 25 8 51
5 57 -4 6 -3 8 3 5 6 -4 13 0 17 8 7 19 21 19 51 -1z m170 -74 c28 -14 62 -40
52 -40 -9 0 -97 52 -97 57 0 2 3 3 8 1 4 -2 21 -10 37 -18z m-125 -145 c0 -3
-18 4 -40 15 -22 11 -40 23 -40 25 0 3 18 -4 40 -15 22 -11 40 -23 40 -25z
m65 -155 c-3 -5 -16 -15 -28 -21 -19 -9 -19 -8 3 10 28 23 34 26 25 11z"/>
<path d="M5665 6080 c6 -10 4 -12 -9 -7 -11 5 -16 3 -14 -5 2 -6 9 -13 15 -15
15 -5 25 25 11 33 -7 5 -8 2 -3 -6z"/>
<path d="M5381 5884 c0 -11 3 -14 6 -6 3 7 2 16 -1 19 -3 4 -6 -2 -5 -13z"/>
<path d="M5375 5851 c-3 -5 -1 -12 5 -16 5 -3 10 1 10 9 0 18 -6 21 -15 7z"/>
<path d="M6040 6244 c-7 -19 -10 -38 -7 -40 3 -3 8 8 12 25 4 17 11 29 16 26
5 -4 6 1 3 9 -9 22 -11 20 -24 -20z"/>
<path d="M3749 6243 l-24 -28 28 24 c25 23 32 31 24 31 -2 0 -14 -12 -28 -27z"/>
<path d="M6060 6228 c0 -9 5 -20 10 -23 13 -8 13 5 0 25 -8 13 -10 13 -10 -2z"/>
<path d="M5974 6118 l-29 -33 33 29 c30 28 37 36 29 36 -2 0 -16 -15 -33 -32z"/>
<path d="M6132 6116 c32 -31 34 -41 7 -38 -3 1 -6 -5 -6 -12 0 -11 7 -12 30
-3 22 7 35 7 48 -2 10 -6 26 -11 34 -11 9 0 13 -4 10 -10 -3 -5 3 -10 15 -10
33 0 15 16 -41 36 -28 10 -69 34 -92 52 l-42 34 37 -36z"/>
<path d="M7026 6129 c-320 -42 -536 -290 -512 -591 21 -259 179 -436 440 -493
94 -21 312 -16 387 8 66 22 149 65 155 82 6 14 -74 165 -87 165 -3 0 -35 -13
-71 -29 -178 -81 -375 -53 -490 70 -68 73 -91 140 -86 254 6 146 65 237 192
296 117 55 256 49 375 -17 24 -13 47 -24 50 -24 9 0 111 153 111 165 0 15 -77
60 -141 83 -54 20 -188 43 -232 41 -12 -1 -53 -6 -91 -10z"/>
<path d="M9080 5918 c0 -181 -1 -190 -17 -176 -10 9 -38 26 -63 39 -39 21 -59
24 -155 24 -105 0 -114 -2 -177 -33 -163 -80 -243 -269 -194 -462 51 -203 262
-322 471 -265 46 12 78 29 110 57 l45 40 0 -45 0 -44 68 -6 c37 -4 84 -7 105
-7 l37 0 0 535 0 535 -115 0 -115 0 0 -192z m-103 -307 c77 -35 124 -144 103
-238 -23 -104 -88 -156 -190 -156 -61 0 -101 17 -142 60 -36 38 -49 77 -49
148 0 33 5 74 11 90 15 39 57 84 95 101 43 19 123 17 172 -5z"/>
<path d="M6005 6070 c-3 -6 1 -7 9 -4 18 7 21 14 7 14 -6 0 -13 -4 -16 -10z"/>
<path d="M6040 6072 c0 -11 22 -32 32 -32 5 0 4 9 -2 20 -11 20 -30 28 -30 12z"/>
<path d="M6012 6052 c-17 -5 -15 -49 3 -56 8 -3 15 -1 15 4 0 6 -4 10 -10 10
-5 0 -10 8 -10 18 1 16 1 16 11 0 11 -20 29 -24 29 -7 0 16 -24 36 -38 31z"/>
<path d="M6100 6050 c-8 -5 -12 -12 -9 -15 4 -3 12 1 19 10 14 17 11 19 -10 5z"/>
<path d="M6176 6052 c-2 -4 4 -8 14 -8 10 0 16 4 14 8 -3 4 -9 8 -14 8 -5 0
-11 -4 -14 -8z"/>
<path d="M5820 6040 c0 -5 10 -10 23 -10 18 0 19 2 7 10 -19 13 -30 13 -30 0z"/>
<path d="M6120 6030 c-9 -6 -10 -10 -3 -10 6 0 15 5 18 10 8 12 4 12 -15 0z"/>
<path d="M5880 6023 c8 -3 27 -12 43 -20 15 -7 27 -11 27 -9 0 8 -58 36 -72
35 -9 0 -8 -2 2 -6z"/>
<path d="M6186 6015 c-15 -8 -33 -12 -40 -8 -6 3 -8 3 -4 -2 4 -4 -8 -25 -27
-47 -19 -21 -35 -44 -35 -51 0 -6 6 -3 12 8 22 40 54 68 103 91 28 13 43 24
35 24 -8 0 -28 -7 -44 -15z"/>
<path d="M6090 6004 c0 -8 5 -12 10 -9 6 4 8 11 5 16 -9 14 -15 11 -15 -7z"/>
<path d="M6040 5988 c0 -4 7 -8 15 -8 8 0 15 4 15 8 0 5 -7 9 -15 9 -8 0 -15
-4 -15 -9z"/>
<path d="M5982 5965 c15 -17 34 -46 42 -65 8 -19 15 -29 16 -22 0 22 -27 66
-57 92 l-28 25 27 -30z"/>
<path d="M6018 5958 c20 -31 59 -50 49 -23 -3 7 0 18 6 24 14 14 2 14 -24 1
-15 -8 -19 -7 -19 4 0 7 -7 17 -16 20 -13 5 -12 0 4 -26z"/>
<path d="M6064 5865 c-5 -20 -9 -24 -16 -13 -7 10 -8 8 -4 -5 3 -10 6 -24 7
-30 0 -7 7 6 15 27 8 22 12 41 10 44 -3 2 -8 -8 -12 -23z"/>
<path d="M7863 5805 c-240 -44 -387 -259 -329 -482 19 -76 48 -124 110 -181
90 -83 202 -118 351 -109 147 8 263 68 332 171 39 57 53 100 60 186 23 273
-225 469 -524 415z m193 -195 c61 -30 95 -85 101 -163 10 -117 -37 -195 -134
-223 -139 -40 -258 37 -270 175 -9 98 30 173 112 215 44 23 139 21 191 -4z"/>
<path d="M9691 5794 c-222 -61 -335 -302 -249 -533 25 -66 101 -147 174 -184
155 -78 419 -58 532 41 l23 20 -41 66 c-23 36 -44 66 -47 66 -3 0 -17 -9 -32
-19 -75 -54 -226 -65 -308 -22 -40 20 -93 82 -93 108 0 10 64 13 283 15 l282
3 -1 91 c0 79 -4 98 -31 156 -68 144 -185 210 -372 207 -36 0 -90 -7 -120 -15z
m228 -172 c34 -25 59 -61 70 -99 l10 -33 -180 0 -179 0 15 38 c20 45 60 89
100 108 40 18 131 11 164 -14z"/>
<path d="M10675 5797 c-27 -7 -57 -27 -92 -64 l-53 -54 0 56 0 55 -110 0 -110
0 0 -370 0 -370 99 0 c55 0 106 -3 115 -6 14 -5 16 15 16 186 0 211 8 261 50
312 43 52 144 72 240 47 12 -3 15 13 18 100 2 77 -1 107 -10 113 -18 11 -114
8 -163 -5z"/>
<path d="M6530 4389 l0 -491 268 5 c236 3 274 6 330 25 210 69 322 229 322
462 0 253 -141 423 -392 474 -57 12 -136 16 -303 16 l-225 0 0 -491z m483 286
c31 -8 75 -26 97 -40 143 -90 160 -354 31 -467 -67 -59 -112 -72 -258 -76
l-133 -4 0 301 0 301 103 0 c59 0 127 -6 160 -15z"/>
<path d="M7840 4619 c-225 -30 -363 -207 -329 -421 19 -117 94 -213 207 -266
53 -25 67 -27 192 -27 131 0 137 1 200 31 113 54 180 142 199 263 31 189 -75
354 -259 404 -71 20 -141 25 -210 16z m135 -180 c22 -6 56 -28 76 -48 100
-100 58 -267 -77 -311 -81 -27 -197 18 -234 90 -22 43 -26 122 -9 167 33 88
138 131 244 102z"/>
<path d="M8690 4609 c-78 -14 -148 -49 -201 -102 -175 -175 -126 -472 95 -573
131 -60 333 -47 430 28 17 14 17 17 -13 74 -46 90 -41 87 -92 62 -56 -29 -176
-31 -226 -5 -115 61 -125 243 -17 317 55 37 145 40 218 7 l55 -25 36 63 c41
73 41 76 16 99 -51 46 -197 73 -301 55z m78 -16 c-10 -2 -26 -2 -35 0 -10 3
-2 5 17 5 19 0 27 -2 18 -5z m75 0 c-7 -2 -21 -2 -30 0 -10 3 -4 5 12 5 17 0
24 -2 18 -5z m-199 -18 c-23 -7 -52 -19 -65 -25 -18 -9 -21 -10 -13 0 13 13
82 39 104 39 8 -1 -4 -7 -26 -14z m291 -6 c5 -5 -6 -4 -25 2 -45 15 -54 24
-15 15 17 -4 34 -12 40 -17z m60 -29 c7 -11 -24 -75 -32 -67 -2 3 1 15 7 27 9
16 9 25 -1 36 -9 11 -8 14 4 14 9 0 19 -4 22 -10z m-325 -103 c0 -2 -10 -12
-22 -23 l-23 -19 19 23 c18 21 26 27 26 19z m246 -13 c18 -14 18 -14 -6 -3
-31 14 -36 19 -24 19 6 0 19 -7 30 -16z m-506 -91 c-11 -17 -11 -17 -6 0 3 10
6 24 7 30 0 9 2 9 5 0 3 -7 0 -20 -6 -30z m-3 -145 c-3 -8 -6 -5 -6 6 -1 11 2
17 5 13 3 -3 4 -12 1 -19z m498 -118 c-3 -5 -16 -10 -28 -9 -21 0 -21 1 -2 9
28 12 37 12 30 0z m80 -30 c17 -33 19 -44 6 -36 -10 6 -33 66 -26 66 3 0 11
-13 20 -30z m-157 13 c-15 -2 -42 -2 -60 0 -18 2 -6 4 27 4 33 0 48 -2 33 -4z
m-283 -77 c6 -4 1 -4 -10 2 -11 6 -29 21 -40 34 -19 22 -19 22 10 -2 17 -14
35 -29 40 -34z m470 4 c-8 -13 -85 -53 -91 -47 -3 2 9 10 25 17 17 7 36 18 42
26 13 16 33 19 24 4z m-410 -38 c-3 -3 -11 0 -18 7 -9 10 -8 11 6 5 10 -3 15
-9 12 -12z m118 -29 c-7 -2 -19 -2 -25 0 -7 3 -2 5 12 5 14 0 19 -2 13 -5z"/>
<path d="M9270 4610 c-130 -27 -204 -107 -204 -220 -1 -80 24 -117 104 -157
36 -18 107 -42 159 -53 104 -22 141 -40 141 -70 0 -34 -38 -50 -117 -50 -39 0
-84 5 -100 11 -15 7 -48 12 -73 13 -25 1 -45 6 -45 11 0 6 2 9 5 8 43 -15 45
-15 20 6 -30 24 -33 21 -79 -60 l-31 -57 30 -26 c93 -77 352 -91 475 -24 111
60 139 211 56 301 -36 40 -88 65 -184 88 -98 24 -136 37 -159 57 -25 21 -8 46
41 60 48 15 153 -3 219 -37 l40 -21 31 66 c17 37 31 72 31 80 0 7 -21 24 -47
38 -79 39 -221 56 -313 36z m230 -20 c20 -6 21 -8 5 -8 -11 0 -33 4 -50 8 -27
7 -27 8 -5 8 14 0 36 -4 50 -8z m-251 -4 c-2 -2 -15 -9 -29 -15 -24 -11 -24
-11 -6 3 16 13 49 24 35 12z m-96 -53 c-16 -16 -32 -35 -35 -43 -3 -8 -9 -12
-13 -8 -8 7 56 78 70 78 4 0 -6 -12 -22 -27z m445 -48 c-12 -25 -24 -43 -26
-41 -2 2 4 18 12 35 9 16 16 37 16 46 0 9 4 13 10 10 5 -3 1 -24 -12 -50z
m-89 -41 c9 -9 -53 7 -63 17 -5 5 5 4 24 -1 18 -5 35 -12 39 -16z m60 -20 c13
-12 -8 -10 -29 2 l-25 15 25 -7 c14 -3 27 -8 29 -10z m-482 -76 c-3 -8 -6 -5
-6 6 -1 11 2 17 5 13 3 -3 4 -12 1 -19z m258 -8 c67 -21 83 -29 45 -23 -19 4
-53 15 -75 25 -42 19 -36 19 30 -2z m-235 -35 c0 -7 12 -23 28 -34 15 -11 22
-21 15 -21 -6 0 -23 14 -37 31 -26 30 -35 56 -16 44 6 -3 10 -12 10 -20z m398
-10 c81 -29 114 -61 126 -125 l6 -35 -13 30 c-8 17 -12 33 -10 38 2 4 -1 7 -6
7 -6 0 -11 7 -11 15 0 8 -5 15 -12 15 -6 0 -20 8 -31 17 -10 10 -42 25 -70 34
-29 9 -45 17 -37 18 8 0 34 -6 58 -14z m-255 -74 c15 -6 27 -13 27 -15 0 -6
-98 28 -106 37 -7 7 36 -5 79 -22z m120 -30 c7 -7 -3 -7 -29 0 -57 15 -64 20
-20 14 22 -2 44 -9 49 -14z m74 -17 c12 -3 24 -13 28 -21 4 -12 2 -13 -8 -5
-7 6 -24 16 -38 21 -27 11 -16 14 18 5z m203 -56 c0 -25 -21 -87 -31 -94 -8
-4 -7 0 0 14 6 11 11 37 11 56 0 20 5 36 10 36 6 0 10 -6 10 -12z m-180 -52
c-8 -8 -28 -18 -45 -21 -26 -5 -25 -4 10 14 49 24 53 25 35 7z m-215 -11 c39
-17 21 -18 -25 0 -19 7 -28 14 -20 14 8 0 29 -6 45 -14z m-153 -17 c-8 -8 -8
-16 1 -32 6 -12 11 -25 12 -31 0 -5 29 -20 65 -32 72 -24 70 -31 -3 -9 -51 15
-107 51 -107 69 0 6 7 2 15 -9 14 -18 15 -18 6 7 -9 25 4 67 17 55 3 -4 1 -11
-6 -18z m261 -5 c-7 -2 -19 -2 -25 0 -7 3 -2 5 12 5 14 0 19 -2 13 -5z m247
-26 c0 -2 -10 -12 -22 -23 l-23 -19 19 23 c18 21 26 27 26 19z m-74 -62 c-11
-8 -27 -15 -35 -15 -9 1 -2 7 14 15 39 18 44 18 21 0z m-153 -32 c-23 -2 -64
-2 -90 0 -26 2 -7 3 42 3 50 0 71 -1 48 -3z"/>
</g>
</svg>
